<svg width="45" height="45" viewBox="0 0 45 45" fill="none" xmlns="http://www.w3.org/2000/svg">
<g clip-path="url(#clip0_4888_18980)">
<path d="M22.6608 44.7542C34.8081 44.7542 44.6555 34.9068 44.6555 22.7594C44.6555 10.612 34.8081 0.764648 22.6608 0.764648C10.5134 0.764648 0.666016 10.612 0.666016 22.7594C0.666016 34.9068 10.5134 44.7542 22.6608 44.7542Z" fill="url(#paint0_linear_4888_18980)"/>
<path d="M33.3341 25.0762H31.9398V23.6818C31.9398 23.3776 31.8798 23.0763 31.7634 22.7952C31.647 22.5141 31.4763 22.2587 31.2612 22.0436C31.046 21.8284 30.7906 21.6578 30.5095 21.5413C30.2284 21.4249 29.9271 21.365 29.6229 21.365H27.306V19.9706C27.3032 19.8473 27.2523 19.73 27.1641 19.6438C27.076 19.5576 26.9575 19.5093 26.8342 19.5094H23.1335V18.461C23.5752 18.3538 23.9618 18.0873 24.2192 17.7126C24.4765 17.3379 24.5865 16.8814 24.5281 16.4306C24.4696 15.9798 24.2468 15.5665 23.9024 15.2698C23.558 14.9732 23.1162 14.8141 22.6617 14.8231C22.2082 14.8169 21.7683 14.9779 21.426 15.2754C21.0837 15.5729 20.863 15.9861 20.8059 16.436C20.7489 16.8859 20.8595 17.3411 21.1167 17.7146C21.374 18.0881 21.7597 18.3538 22.2004 18.461V19.5094H18.4892C18.3669 19.5094 18.2495 19.5579 18.163 19.6444C18.0765 19.7309 18.0279 19.8483 18.0279 19.9706V21.3335H15.711C15.4068 21.3335 15.1055 21.3934 14.8244 21.5099C14.5433 21.6263 14.2879 21.7969 14.0727 22.0121C13.8576 22.2272 13.6869 22.4826 13.5705 22.7637C13.4541 23.0448 13.3941 23.3462 13.3941 23.6504V25.0447H11.9998C11.6308 25.0474 11.2778 25.1952 11.0169 25.4561C10.756 25.717 10.6082 26.0701 10.6055 26.4391V31.9954C10.6055 32.3652 10.7524 32.7199 11.0139 32.9814C11.2753 33.2429 11.63 33.3897 11.9998 33.3897H13.3941V34.784C13.3941 35.3985 13.6382 35.9878 14.0727 36.4223C14.5072 36.8568 15.0965 37.101 15.711 37.101H29.6229C30.2373 37.101 30.8267 36.8568 31.2612 36.4223C31.6957 35.9878 31.9398 35.3985 31.9398 34.784V33.3897H33.3341C33.5167 33.3897 33.6975 33.3536 33.8661 33.2834C34.0347 33.2132 34.1877 33.1103 34.3163 32.9807C34.445 32.8511 34.5467 32.6973 34.6156 32.5282C34.6845 32.3591 34.7193 32.178 34.7179 31.9954V26.4391C34.7098 26.0765 34.5607 25.7314 34.3023 25.477C34.044 25.2226 33.6967 25.0788 33.3341 25.0762ZM21.7391 16.6892C21.7371 16.5038 21.7903 16.322 21.892 16.167C21.9937 16.0119 22.1393 15.8907 22.3103 15.8188C22.4812 15.7469 22.6696 15.7275 22.8516 15.7632C23.0336 15.7988 23.2008 15.8879 23.3319 16.019C23.463 16.1502 23.5521 16.3174 23.5877 16.4993C23.6234 16.6813 23.6041 16.8697 23.5321 17.0407C23.4602 17.2116 23.339 17.3572 23.184 17.4589C23.0289 17.5607 22.8471 17.6139 22.6617 17.6118C22.4249 17.6095 22.1978 17.5173 22.0265 17.3538C21.8551 17.1902 21.7524 16.9676 21.7391 16.7312V16.6892ZM11.9998 32.4148C11.8765 32.412 11.7592 32.3611 11.673 32.2729C11.5867 32.1847 11.5385 32.0663 11.5385 31.943V26.3866C11.5385 26.2633 11.5867 26.1449 11.673 26.0567C11.7592 25.9685 11.8765 25.9176 11.9998 25.9149H13.3941V32.4148H11.9998ZM18.961 20.3585H26.4253V21.2811H18.961V20.3585ZM31.0172 34.7317C31.0144 35.1006 30.8667 35.4536 30.6058 35.7145C30.3449 35.9754 29.9918 36.1232 29.6229 36.126H15.711C15.3421 36.1232 14.989 35.9754 14.7281 35.7145C14.4672 35.4536 14.3194 35.1006 14.3167 34.7317V23.598C14.3195 23.23 14.4676 22.878 14.7288 22.6188C14.99 22.3596 15.343 22.2142 15.711 22.2142H29.6229C29.9909 22.2142 30.3439 22.3596 30.6051 22.6188C30.8663 22.878 31.0144 23.23 31.0172 23.598V34.7317ZM33.7639 32.0269C33.7639 32.1502 33.7157 32.2686 33.6295 32.3568C33.5432 32.445 33.4259 32.4959 33.3026 32.4986H31.9398V25.9988H33.3341C33.4574 26.0015 33.5747 26.0524 33.6609 26.1405C33.7471 26.2287 33.7954 26.3472 33.7954 26.4705L33.7639 32.0269Z" fill="white"/>
<path d="M26.8326 29.7205H18.4457C18.3224 29.7232 18.205 29.7741 18.1188 29.8623C18.0326 29.9505 17.9843 30.0689 17.9844 30.1922V30.6535C18.0411 31.8457 18.5546 32.9703 19.4183 33.794C20.2821 34.6177 21.4299 35.0772 22.6234 35.0772C23.8169 35.0772 24.9647 34.6177 25.8285 33.794C26.6922 32.9703 27.2057 31.8457 27.2624 30.6535V30.1922C27.2629 30.0741 27.219 29.96 27.1394 29.8726C27.0598 29.7853 26.9503 29.731 26.8326 29.7205ZM22.6391 34.3648C21.6567 34.362 20.7154 33.9697 20.0217 33.2741C19.3279 32.5784 18.9384 31.636 18.9384 30.6535H26.4237C26.4224 31.1444 26.3237 31.6302 26.1333 32.0827C25.9429 32.5352 25.6646 32.9455 25.3146 33.2897C24.9645 33.6339 24.5496 33.9052 24.094 34.088C23.6383 34.2707 23.151 34.3612 22.6601 34.3543L22.6391 34.3648Z" fill="white"/>
<path d="M19.8831 26.9321C19.8831 26.5651 19.7743 26.2063 19.5704 25.9011C19.3665 25.5959 19.0767 25.3581 18.7376 25.2177C18.3985 25.0772 18.0254 25.0405 17.6655 25.1121C17.3055 25.1837 16.9749 25.3604 16.7154 25.6199C16.4559 25.8795 16.2791 26.2101 16.2075 26.57C16.1359 26.93 16.1727 27.3031 16.3131 27.6421C16.4536 27.9812 16.6914 28.271 16.9966 28.4749C17.3017 28.6788 17.6605 28.7876 18.0275 28.7876C18.5196 28.7876 18.9916 28.5921 19.3396 28.2441C19.6876 27.8961 19.8831 27.4242 19.8831 26.9321ZM17.1049 26.9321C17.1029 26.7467 17.1561 26.5648 17.2578 26.4097C17.3595 26.2547 17.5051 26.1335 17.676 26.0616C17.847 25.9897 18.0354 25.9703 18.2174 26.006C18.3993 26.0416 18.5666 26.1307 18.6977 26.2619C18.8288 26.393 18.9179 26.5602 18.9535 26.7422C18.9892 26.9241 18.9698 27.1126 18.8979 27.2835C18.826 27.4544 18.7048 27.6 18.5498 27.7017C18.3947 27.8034 18.2129 27.8566 18.0275 27.8546C17.7828 27.8546 17.5482 27.7574 17.3751 27.5844C17.2021 27.4114 17.1049 27.1767 17.1049 26.9321Z" fill="white"/>
<path d="M27.3048 25.0764C26.9378 25.0764 26.5791 25.1852 26.2739 25.3891C25.9688 25.593 25.7309 25.8828 25.5905 26.2219C25.45 26.561 25.4133 26.9341 25.4849 27.294C25.5565 27.654 25.7332 27.9846 25.9927 28.2441C26.2522 28.5036 26.5829 28.6804 26.9428 28.752C27.3028 28.8236 27.6759 28.7868 28.0149 28.6464C28.354 28.5059 28.6438 28.2681 28.8477 27.9629C29.0516 27.6578 29.1604 27.2991 29.1604 26.932C29.1604 26.4399 28.9649 25.9679 28.6169 25.6199C28.269 25.2719 27.797 25.0764 27.3048 25.0764ZM27.3048 27.8546C27.1194 27.8566 26.9376 27.8034 26.7825 27.7017C26.6275 27.6 26.5063 27.4544 26.4344 27.2835C26.3625 27.1126 26.3431 26.9241 26.3788 26.7421C26.4144 26.5602 26.5035 26.393 26.6346 26.2618C26.7658 26.1307 26.933 26.0416 27.1149 26.006C27.2969 25.9703 27.4854 25.9896 27.6563 26.0616C27.8272 26.1335 27.9728 26.2547 28.0745 26.4097C28.1762 26.5648 28.2295 26.7466 28.2274 26.932C28.2274 27.0532 28.2035 27.1731 28.1572 27.2851C28.1108 27.397 28.0428 27.4987 27.9572 27.5844C27.8715 27.6701 27.7698 27.738 27.6579 27.7844C27.5459 27.8307 27.426 27.8546 27.3048 27.8546Z" fill="white"/>
<path d="M15.3846 18.4506C15.4706 18.5373 15.5875 18.5863 15.7096 18.5869C15.7681 18.6016 15.8293 18.6016 15.8878 18.5869C15.9707 18.5522 16.0416 18.494 16.0919 18.4195C16.1422 18.345 16.1696 18.2574 16.1708 18.1675V16.7732H18.9595C19.3275 16.7705 19.6794 16.6224 19.9387 16.3612C20.1979 16.1 20.3434 15.7469 20.3433 15.3789V9.80158C20.3433 9.61985 20.3075 9.43991 20.238 9.27202C20.1685 9.10412 20.0665 8.95152 19.938 8.82302C19.8095 8.69452 19.657 8.59259 19.4891 8.52305C19.3212 8.4535 19.1412 8.41772 18.9595 8.41772H9.64999C9.28747 8.42589 8.9424 8.57497 8.68796 8.83332C8.43353 9.09167 8.28974 9.43898 8.28711 9.80158V15.3684C8.28985 15.7374 8.43763 16.0904 8.69853 16.3513C8.95942 16.6122 9.31249 16.76 9.68144 16.7628H13.6652L15.3846 18.4506ZM9.22016 15.3055V9.80158C9.22016 9.67924 9.26875 9.56188 9.35526 9.47537C9.44177 9.38886 9.5591 9.34029 9.68144 9.34029H18.9595C19.0818 9.34029 19.1992 9.38886 19.2857 9.47537C19.3722 9.56188 19.4208 9.67924 19.4208 9.80158V15.3684C19.4208 15.4907 19.3722 15.6081 19.2857 15.6946C19.1992 15.7811 19.0818 15.8297 18.9595 15.8297H15.7096C15.6481 15.8297 15.5872 15.8419 15.5306 15.8658C15.4739 15.8896 15.4226 15.9245 15.3796 15.9685C15.3366 16.0124 15.3029 16.0645 15.2803 16.1217C15.2578 16.1789 15.2469 16.24 15.2483 16.3015V17.0353L14.1999 15.987C14.1139 15.9003 13.997 15.8513 13.8749 15.8507H9.64999C9.58742 15.8468 9.5263 15.8303 9.47035 15.802C9.4144 15.7737 9.3648 15.7344 9.32458 15.6863C9.28435 15.6382 9.25434 15.5824 9.23639 15.5224C9.21844 15.4623 9.21291 15.3993 9.22016 15.337V15.3055Z" fill="white"/>
<path d="M35.6505 10.242H26.4249C26.0578 10.242 25.7059 10.3878 25.4463 10.6473C25.1868 10.9069 25.041 11.2588 25.041 11.6258V17.1927C25.041 17.5607 25.1865 17.9138 25.4457 18.1749C25.7049 18.4361 26.0569 18.5843 26.4249 18.587H29.2135V19.9709C29.2112 20.0628 29.2371 20.1533 29.2877 20.2301C29.3383 20.307 29.4112 20.3665 29.4966 20.4007C29.555 20.4162 29.6164 20.4162 29.6748 20.4007C29.7964 20.3979 29.9125 20.3492 29.9998 20.2644L31.7191 18.5451H35.7029C36.0719 18.5424 36.4249 18.3946 36.6858 18.1337C36.9467 17.8728 37.0945 17.5197 37.0972 17.1508V11.5839C37.0905 11.4008 37.0477 11.2208 36.9713 11.0542C36.8949 10.8876 36.7864 10.7377 36.6521 10.6131C36.5177 10.4884 36.3601 10.3915 36.1882 10.3278C36.0164 10.2641 35.8336 10.235 35.6505 10.242ZM36.1118 17.1927C36.1118 17.2532 36.0999 17.3132 36.0767 17.3692C36.0535 17.4252 36.0195 17.476 35.9767 17.5189C35.9338 17.5617 35.883 17.5956 35.827 17.6188C35.7711 17.642 35.7111 17.654 35.6505 17.654H31.457C31.3349 17.6546 31.2181 17.7036 31.132 17.7902L30.0837 18.8386V18.1047C30.0837 17.9814 30.0354 17.863 29.9492 17.7748C29.863 17.6867 29.7457 17.6357 29.6224 17.633H26.4249C26.3025 17.633 26.1852 17.5844 26.0987 17.4979C26.0122 17.4114 25.9636 17.2941 25.9636 17.1717V11.6049C25.9636 11.4825 26.0122 11.3652 26.0987 11.2787C26.1852 11.1922 26.3025 11.1436 26.4249 11.1436H35.6505C35.7728 11.1436 35.8902 11.1922 35.9767 11.2787C36.0632 11.3652 36.1118 11.4825 36.1118 11.6049V17.1927Z" fill="white"/>
<path d="M10.1426 10.2419H18.5295V11.1645H10.1426V10.2419Z" fill="white"/>
<path d="M10.1426 13.9951H18.5295V14.9282H10.1426V13.9951Z" fill="white"/>
<path d="M11.0762 12.0974H17.5656V13.02H11.0762V12.0974Z" fill="white"/>
<path d="M26.834 12.0974H35.2209V13.02H26.834V12.0974Z" fill="white"/>
<path d="M26.834 15.7981H35.2209V16.7312H26.834V15.7981Z" fill="white"/>
<path d="M27.7656 13.9951H34.255V14.9282H27.7656V13.9951Z" fill="white"/>
</g>
<defs>
<linearGradient id="paint0_linear_4888_18980" x1="22.6608" y1="-0.0321112" x2="22.6608" y2="40.393" gradientUnits="userSpaceOnUse">
<stop offset="0.04" stop-color="#82D88A"/>
<stop offset="0.15" stop-color="#75CF7E"/>
<stop offset="0.43" stop-color="#5CBD68"/>
<stop offset="0.68" stop-color="#4CB25B"/>
<stop offset="0.87" stop-color="#47AE56"/>
</linearGradient>
<clipPath id="clip0_4888_18980">
<rect width="44" height="44" fill="white" transform="translate(0.666016 0.764648)"/>
</clipPath>
</defs>
</svg>
