<svg width="45" height="45" viewBox="0 0 45 45" fill="none" xmlns="http://www.w3.org/2000/svg">
<g clip-path="url(#clip0_4888_19035)">
<path d="M22.3287 44.7542C34.4761 44.7542 44.3235 34.9068 44.3235 22.7594C44.3235 10.612 34.4761 0.764648 22.3287 0.764648C10.1814 0.764648 0.333984 10.612 0.333984 22.7594C0.333984 34.9068 10.1814 44.7542 22.3287 44.7542Z" fill="url(#paint0_linear_4888_19035)"/>
<path d="M15.1151 25.6633C14.9872 25.6633 14.8645 25.7141 14.7741 25.8046C14.6836 25.895 14.6328 26.0176 14.6328 26.1455V28.5673C14.6328 28.6952 14.6836 28.8179 14.7741 28.9083C14.8645 28.9988 14.9872 29.0495 15.1151 29.0495C15.2421 29.0469 15.3632 28.9952 15.4531 28.9053C15.543 28.8154 15.5946 28.6944 15.5973 28.5673V26.177C15.6001 26.1114 15.5898 26.0459 15.5669 25.9844C15.5441 25.9229 15.5092 25.8665 15.4643 25.8187C15.4193 25.7708 15.3653 25.7324 15.3053 25.7058C15.2454 25.6791 15.1807 25.6647 15.1151 25.6633Z" fill="white"/>
<path d="M20.9143 31.943H14.1523C14.0823 31.9327 14.0109 31.9376 13.9429 31.9574C13.875 31.9772 13.8121 32.0113 13.7585 32.0576C13.705 32.1038 13.662 32.1611 13.6326 32.2254C13.6031 32.2898 13.5879 32.3597 13.5879 32.4305C13.5879 32.5013 13.6031 32.5712 13.6326 32.6355C13.662 32.6999 13.705 32.7571 13.7585 32.8034C13.8121 32.8496 13.875 32.8838 13.9429 32.9036C14.0109 32.9233 14.0823 32.9283 14.1523 32.918H14.6346V35.3292C14.6331 35.3929 14.6446 35.4563 14.6683 35.5155C14.6921 35.5746 14.7275 35.6283 14.7726 35.6734C14.8177 35.7184 14.8714 35.7539 14.9306 35.7777C14.9897 35.8014 15.0531 35.8129 15.1168 35.8115C15.1758 35.8214 15.236 35.8214 15.295 35.8115L17.528 34.9204L19.7716 35.8115C19.83 35.835 19.8925 35.8467 19.9555 35.8457C20.0185 35.8447 20.0807 35.8311 20.1383 35.8057C20.196 35.7803 20.248 35.7436 20.2912 35.6978C20.3344 35.6519 20.3681 35.5979 20.3901 35.5389C20.4057 35.4805 20.4057 35.4191 20.3901 35.3607V32.9494H20.8723C20.9994 32.944 21.1194 32.8897 21.2073 32.7979C21.2952 32.7061 21.3442 32.5838 21.3441 32.4567C21.353 32.332 21.3131 32.2089 21.2329 32.1131C21.1527 32.0172 21.0385 31.9562 20.9143 31.943ZM19.4675 34.6163C19.3627 34.6163 17.591 33.83 17.528 33.8824C17.4651 33.9349 15.6829 34.5953 15.5991 34.6163V32.918H19.4675V34.6163Z" fill="white"/>
<path d="M35.5281 22.8957C36.6085 21.2214 37.0455 19.2123 36.7583 17.2404C36.4711 15.2686 35.4791 13.4676 33.966 12.171V10.6822C33.966 10.0427 33.712 9.42942 33.2598 8.97722C32.8076 8.52503 32.1943 8.271 31.5548 8.271H13.1769C12.5374 8.271 11.9241 8.52503 11.4719 8.97722C11.0197 9.42942 10.7656 10.0427 10.7656 10.6822V34.7947C10.7656 35.4342 11.0197 36.0476 11.4719 36.4998C11.9241 36.952 12.5374 37.206 13.1769 37.206H33.4313C33.4951 37.2061 33.5582 37.1932 33.6169 37.1682C33.6755 37.1432 33.7285 37.1065 33.7726 37.0605C33.8167 37.0144 33.851 36.9599 33.8734 36.9002C33.8958 36.8405 33.9059 36.7769 33.9031 36.7132C33.9004 36.5889 33.8499 36.4705 33.762 36.3826C33.6741 36.2947 33.5556 36.2441 33.4313 36.2414H32.4668V31.419H33.4313C33.4951 31.4204 33.5584 31.4089 33.6176 31.3852C33.6767 31.3615 33.7305 31.326 33.7755 31.2809C33.8206 31.2358 33.8561 31.1821 33.8798 31.123C33.9035 31.0638 33.915 31.0004 33.9136 30.9367V26.1771L35.3813 27.6449C35.7065 27.9248 36.1257 28.0713 36.5545 28.0548C36.9833 28.0383 37.39 27.86 37.6928 27.5559C37.9956 27.2518 38.172 26.8444 38.1866 26.4155C38.2012 25.9866 38.053 25.5681 37.7716 25.2441L35.5281 22.8957ZM35.9055 18.4192C35.9027 20.3414 35.1371 22.184 33.7769 23.5423C32.4167 24.9005 30.573 25.6634 28.6508 25.6634C19.0372 25.2651 19.0372 11.5629 28.6508 11.175C30.5712 11.1778 32.4122 11.9419 33.7702 13.2998C35.1281 14.6578 35.8922 16.4988 35.895 18.4192H35.9055ZM31.5548 36.2414H13.1769C12.7932 36.2414 12.4252 36.089 12.1539 35.8177C11.8825 35.5464 11.7301 35.1784 11.7301 34.7947V32.8657C11.7301 32.482 11.8825 32.114 12.1539 31.8427C12.4252 31.5714 12.7932 31.419 13.1769 31.419H31.5443L31.5548 36.2414ZM13.1874 30.444C12.6644 30.447 12.1567 30.6199 11.7406 30.9367V10.6822C11.7406 10.2985 11.893 9.93058 12.1644 9.65926C12.4357 9.38795 12.8037 9.23554 13.1874 9.23554H14.6446V23.7344C14.6446 23.8623 14.6954 23.985 14.7858 24.0754C14.8763 24.1658 14.9989 24.2167 15.1268 24.2167C15.2539 24.214 15.375 24.1623 15.4649 24.0725C15.5547 23.9826 15.6064 23.8615 15.6091 23.7344V9.23554H31.5443C31.928 9.23554 32.296 9.38795 32.5673 9.65926C32.8386 9.93058 32.991 10.2985 32.991 10.6822V11.5C31.7487 10.7215 30.3205 10.2899 28.8549 10.2502C27.3894 10.2104 25.9399 10.5639 24.6572 11.2739C23.3744 11.9839 22.3053 13.0245 21.5608 14.2875C20.8163 15.5505 20.4236 16.9898 20.4236 18.4559C20.4236 19.922 20.8163 21.3614 21.5608 22.6244C22.3053 23.8874 23.3744 24.9279 24.6572 25.6379C25.9399 26.3479 27.3894 26.7013 28.8549 26.6616C30.3205 26.6218 31.7487 26.1903 32.991 25.4118V30.5383L13.1874 30.444ZM37.1426 26.8481C37.075 26.9192 36.9937 26.9757 36.9036 27.0143C36.8135 27.053 36.7164 27.073 36.6184 27.073C36.5203 27.073 36.4233 27.053 36.3332 27.0143C36.2431 26.9757 36.1618 26.9192 36.0942 26.8481L33.9031 24.657C34.2819 24.3382 34.6327 23.9874 34.9515 23.6086L37.1426 25.7997C37.2185 25.8702 37.2789 25.9558 37.3199 26.051C37.3609 26.1461 37.3816 26.2488 37.3806 26.3525C37.3796 26.4561 37.357 26.5583 37.3142 26.6527C37.2714 26.7471 37.2094 26.8315 37.1321 26.9005L37.1426 26.8481Z" fill="white"/>
<path d="M32.4447 15.5047C32.4476 15.5684 32.4375 15.632 32.415 15.6917C32.3926 15.7514 32.3583 15.8059 32.3142 15.8519C32.2701 15.898 32.2171 15.9347 32.1585 15.9597C32.0998 15.9847 32.0367 15.9975 31.973 15.9974H25.3787C25.2508 15.9974 25.1282 15.9467 25.0377 15.8562C24.9473 15.7658 24.8965 15.6431 24.8965 15.5152C24.8965 15.3873 24.9473 15.2647 25.0377 15.1742C25.1282 15.0838 25.2508 15.033 25.3787 15.033H31.973C32.0981 15.033 32.2181 15.0827 32.3066 15.1712C32.395 15.2596 32.4447 15.3796 32.4447 15.5047Z" fill="white"/>
<path d="M32.4462 17.4336C32.449 17.4978 32.4389 17.5619 32.4166 17.6222C32.3943 17.6825 32.3602 17.7377 32.3162 17.7845C32.2723 17.8314 32.2194 17.8691 32.1607 17.8952C32.102 17.9214 32.0387 17.9356 31.9744 17.9369H25.3802C25.2534 17.9324 25.1326 17.8822 25.04 17.7954C24.9475 17.7087 24.8896 17.5913 24.877 17.4651C24.8796 17.3325 24.9335 17.206 25.0273 17.1122C25.1211 17.0184 25.2475 16.9646 25.3802 16.9619H31.9744C32.0995 16.9619 32.2195 17.0116 32.308 17.1001C32.3965 17.1885 32.4462 17.3085 32.4462 17.4336Z" fill="white"/>
<path d="M32.4462 19.3731C32.449 19.4368 32.4389 19.5004 32.4165 19.5601C32.394 19.6198 32.3597 19.6743 32.3156 19.7203C32.2715 19.7664 32.2186 19.803 32.1599 19.828C32.1013 19.853 32.0382 19.8659 31.9744 19.8658H25.3802C25.2534 19.8614 25.1326 19.8112 25.04 19.7244C24.9475 19.6377 24.8896 19.5203 24.877 19.3941C24.8797 19.2625 24.9339 19.1371 25.028 19.045C25.1221 18.9529 25.2485 18.9013 25.3802 18.9014H31.9744C32.0995 18.9014 32.2195 18.951 32.308 19.0395C32.3965 19.128 32.4462 19.248 32.4462 19.3731Z" fill="white"/>
<path d="M32.4462 21.302C32.449 21.3657 32.4389 21.4294 32.4165 21.4891C32.394 21.5488 32.3597 21.6032 32.3156 21.6493C32.2715 21.6953 32.2186 21.732 32.1599 21.757C32.1013 21.782 32.0382 21.7949 31.9744 21.7948H25.3802C25.253 21.7978 25.1295 21.7514 25.0357 21.6654C24.9419 21.5794 24.885 21.4605 24.877 21.3335C24.8796 21.2009 24.9335 21.0744 25.0273 20.9806C25.1211 20.8868 25.2475 20.833 25.3802 20.8303H31.9744C32.0995 20.8303 32.2195 20.88 32.308 20.9685C32.3965 21.0569 32.4462 21.1769 32.4462 21.302Z" fill="white"/>
</g>
<defs>
<linearGradient id="paint0_linear_4888_19035" x1="22.3287" y1="-0.0321112" x2="22.3287" y2="40.393" gradientUnits="userSpaceOnUse">
<stop offset="0.04" stop-color="#82D88A"/>
<stop offset="0.15" stop-color="#75CF7E"/>
<stop offset="0.43" stop-color="#5CBD68"/>
<stop offset="0.68" stop-color="#4CB25B"/>
<stop offset="0.87" stop-color="#47AE56"/>
</linearGradient>
<clipPath id="clip0_4888_19035">
<rect width="44" height="44" fill="white" transform="translate(0.333984 0.764648)"/>
</clipPath>
</defs>
</svg>
