<svg width="44" height="45" viewBox="0 0 44 45" fill="none" xmlns="http://www.w3.org/2000/svg">
<g clip-path="url(#clip0_4888_19049)">
<path d="M21.9948 44.7542C34.1421 44.7542 43.9895 34.9068 43.9895 22.7594C43.9895 10.612 34.1421 0.764648 21.9948 0.764648C9.84739 0.764648 0 10.612 0 22.7594C0 34.9068 9.84739 44.7542 21.9948 44.7542Z" fill="url(#paint0_linear_4888_19049)"/>
<g clip-path="url(#clip1_4888_19049)">
<path d="M26.3119 38.1275C26.0927 37.9363 25.8734 37.722 26.0651 37.418C26.1503 37.2826 26.3445 37.1911 26.508 37.1372C26.6464 37.0908 26.8124 37.1278 27.0091 37.1278V34.9611C23.7531 36.3613 20.4087 36.5411 17.0386 35.3553C13.6686 34.1695 11.1504 31.9577 9.50362 28.7844C6.81572 23.5936 7.79855 17.3386 11.9522 13.0804C15.8798 9.05037 22.2359 7.98739 27.3361 10.4211C32.6543 12.9594 36.367 19.3837 34.5654 26.1163C35.143 26.1163 35.7111 26.1307 36.278 26.1107C36.5843 26.1 36.8261 26.1733 37.0028 26.4291V26.8051C36.7729 27.1962 36.3651 27.1016 36.0005 27.1285C36.0005 27.655 36.0118 28.1439 36.0005 28.6327C35.9621 30.0266 35.3735 31.1285 34.2347 31.9382C34.1545 31.9953 34.0756 32.0542 33.9879 32.1181C34.0165 32.1487 34.047 32.1774 34.0793 32.204C35.4117 33.0739 36.0337 34.313 36.0036 35.895C35.9961 36.2973 36.0036 36.7003 36.0036 37.124C36.3914 37.124 36.7716 37.0701 37.0059 37.4405V38.13L26.3119 38.1275ZM28.5313 14.8328C26.6571 13.0516 23.9767 12.1503 22.0167 12.1378C21.9647 12.5182 22.1238 13.0817 21.5011 13.0829C20.8785 13.0842 21.0345 12.5188 20.985 12.1428C19.1058 12.013 15.6349 13.459 14.4754 14.8535C14.7065 15.1512 15.2014 15.4232 14.7792 15.8626C14.3276 16.332 14.0425 15.7924 13.7143 15.5599C12.0562 17.4382 11.1598 19.5999 11.0126 22.0938C11.421 22.1471 11.9836 21.9885 11.9823 22.614C11.981 23.2395 11.4185 23.0778 11.012 23.1336C11.1661 25.6331 12.0619 27.7998 13.7224 29.665C14.0432 29.4187 14.3031 28.9311 14.7372 29.3215C15.2383 29.7741 14.6946 30.0736 14.4566 30.4021C16.3327 32.0642 18.4931 32.9592 20.9856 33.1097C21.0332 32.6966 20.8797 32.1369 21.5049 32.1401C22.13 32.1432 21.964 32.7079 22.0211 33.109C24.1176 33.0008 26.1344 32.2701 27.814 31.01C26.8644 29.8505 26.9997 28.4704 26.9997 27.1166C26.8155 27.1166 26.6802 27.121 26.5456 27.1166C26.2223 27.1041 26.0112 26.9123 26.0031 26.6303C25.995 26.3357 26.2123 26.1288 26.5493 26.1176C26.6326 26.1144 26.7159 26.1176 26.7999 26.1176C28.2475 26.1176 29.6951 26.1176 31.1427 26.1119C31.2436 26.1119 31.409 26.0536 31.4346 25.9822C31.7608 25.0664 31.9463 24.1063 31.9846 23.1348C31.5956 23.0765 31.045 23.2414 31.0206 22.6485C30.9918 21.981 31.5906 22.1521 31.9796 22.1013C31.8976 19.6946 30.7895 17.1054 29.2623 15.5893C28.6277 16.0907 28.4605 16.1384 28.2131 15.8776C27.9756 15.6307 28.0276 15.4546 28.5313 14.8328ZM33.4918 26.1069C33.5193 26.0323 33.5406 25.9847 33.5544 25.9346C34.1351 23.7867 34.1651 21.6281 33.6001 19.479C31.8393 12.7814 25.103 8.80782 18.3917 10.4913C11.9673 12.1002 7.88562 18.6661 9.25869 25.1787C10.9562 33.2237 19.8098 37.4781 27.1432 33.7652C27.39 33.6399 27.5904 33.4161 27.8003 33.225C28.1454 32.9116 28.4805 32.5869 28.8213 32.2685C28.8777 32.2159 28.9422 32.1714 29.0192 32.11L28.5131 31.7609C23.49 35.5527 17.0186 34.4616 13.3485 30.7305C9.62953 26.9493 8.92545 21.2201 11.6459 16.6799C14.3526 12.1635 19.7428 10.0795 24.8511 11.6082C27.3048 12.3427 29.3017 13.7711 30.7913 15.8538C33.0263 18.9782 33.5199 22.4172 32.4826 26.1069H33.4918ZM27.9995 27.1291C27.9995 27.6475 27.9875 28.1363 27.9995 28.624C28.0339 29.7904 28.5557 30.6778 29.573 31.2501C29.8724 31.418 30.0359 31.6192 29.9989 31.9677C29.9882 32.0719 29.9882 32.1769 29.9989 32.2811C30.0309 32.6126 29.8918 32.8232 29.5968 32.983C29.3421 33.1236 29.1065 33.2963 28.8958 33.497C27.8203 34.5098 27.9807 35.8235 28.0132 37.1159H28.9672C29.2278 35.8743 30.2201 35.1103 31.5411 35.1266C32.8203 35.1429 33.7931 35.9181 34.0217 37.1102H34.9976C34.9976 36.6678 34.9939 36.2428 34.9976 35.8179C35.0114 34.523 34.4677 33.5528 33.322 32.9348C33.0965 32.8132 32.9844 32.6371 32.9956 32.3801C33.0057 32.2449 33.0057 32.1092 32.9956 31.974C32.9606 31.6268 33.1122 31.4162 33.4178 31.2538C34.1933 30.8408 34.7333 30.199 34.8893 29.3378C35.0145 28.6208 34.9939 27.8769 35.0384 27.1298L27.9995 27.1291ZM30.024 37.0983H32.9931C32.8347 36.4816 32.1456 36.0805 31.3733 36.1287C30.6717 36.1732 30.0841 36.5976 30.024 37.0983Z" fill="white"/>
<path d="M20.9675 17.8688C20.9137 17.9114 20.8779 17.9434 20.8391 17.971C20.576 18.159 20.3248 18.149 20.1363 17.949C19.9477 17.7491 19.9484 17.4608 20.1776 17.2239C20.4808 16.9088 20.79 16.5994 21.1053 16.2957C21.3753 16.0356 21.6227 16.0381 21.8984 16.3019C22.174 16.5658 22.4452 16.8447 22.7171 17.1167C23.0303 17.4301 23.0791 17.6927 22.8724 17.9315C22.6657 18.1703 22.4064 18.1578 22.0236 17.8726C22.0117 17.9311 22.0033 17.9904 21.9986 18.05C21.9986 19.0189 21.9986 19.9885 21.9942 20.9575C21.9942 21.1248 22.0612 21.1963 22.1896 21.2965C22.4289 21.4846 22.6219 21.7315 22.8424 21.9452C22.9138 22.0142 23.0109 22.1032 23.0973 22.1038C24.7736 22.1126 26.4498 22.1101 28.1261 22.1088C28.1639 22.1048 28.2012 22.0972 28.2376 22.0863C28.2019 22.0411 28.1781 22.0123 28.1561 21.9828C27.9425 21.6914 27.9501 21.4263 28.1774 21.2351C28.3942 21.0534 28.6573 21.0772 28.9016 21.3141C29.2079 21.6118 29.511 21.9126 29.8067 22.221C30.0679 22.493 30.066 22.7406 29.8036 23.0145C29.5411 23.2884 29.2611 23.5623 28.9893 23.8343C28.6761 24.1477 28.4155 24.1991 28.1749 23.9941C27.9344 23.7892 27.945 23.5222 28.2332 23.1461C28.165 23.1322 28.0959 23.1227 28.0265 23.1179C26.4022 23.1179 24.7779 23.1179 23.1537 23.1135C22.9908 23.1135 22.8987 23.153 22.816 23.3078C22.4978 23.9026 21.8677 24.211 21.2538 24.0988C20.9438 24.0448 20.6581 23.8961 20.436 23.6731C20.2139 23.4501 20.0663 23.1638 20.0135 22.8534C19.9045 22.2379 20.2202 21.6243 20.8034 21.2809C20.8899 21.2301 20.9869 21.106 20.9882 21.0145C21.0007 20.0042 20.9957 18.9932 20.9945 17.9823C20.9891 17.9437 20.98 17.9057 20.9675 17.8688ZM21.9955 22.6015C21.9937 22.5018 21.9624 22.4048 21.9053 22.3231C21.8483 22.2413 21.7682 22.1784 21.6753 22.1424C21.5823 22.1065 21.4808 22.099 21.3836 22.1211C21.2864 22.1431 21.198 22.1936 21.1297 22.2662C21.0613 22.3388 21.0162 22.4301 21 22.5285C20.9837 22.6268 20.9972 22.7278 21.0386 22.8185C21.0801 22.9092 21.1476 22.9855 21.2325 23.0376C21.3175 23.0897 21.4161 23.1152 21.5156 23.111C21.6462 23.1055 21.7695 23.0491 21.8591 22.9539C21.9488 22.8587 21.9977 22.7322 21.9955 22.6015Z" fill="white"/>
<path d="M32.0171 31.0683C31.9413 31.4713 32.1856 32.0517 31.4897 32.1144C31.1433 32.1457 31.0455 31.9201 30.9848 31.0715C30.8858 31.0301 30.7787 30.9906 30.6772 30.9411C29.9387 30.5776 29.5422 29.9834 29.5046 29.1624C29.4902 28.849 29.7038 28.629 29.9869 28.6208C30.0526 28.6172 30.1183 28.6271 30.18 28.65C30.2417 28.6728 30.2981 28.708 30.3456 28.7535C30.3932 28.7989 30.4309 28.8537 30.4565 28.9143C30.482 28.9749 30.4949 29.0401 30.4943 29.1059C30.4993 29.3739 30.608 29.6294 30.7975 29.8188C30.987 30.0082 31.2425 30.1166 31.5103 30.1213C32.0497 30.1094 32.4274 29.7333 32.5019 29.1185C32.5401 28.8051 32.7525 28.6039 33.0325 28.6227C33.3125 28.6415 33.5148 28.864 33.496 29.1824C33.4491 29.9878 33.0626 30.5776 32.3353 30.9373C32.2326 30.9862 32.123 31.0232 32.0171 31.0683Z" fill="white"/>
<path d="M31.5051 33.1252C31.6038 33.1259 31.7 33.1558 31.7817 33.2113C31.8633 33.2668 31.9266 33.3452 31.9636 33.4368C32.0006 33.5283 32.0095 33.6288 31.9894 33.7254C31.9692 33.8221 31.9207 33.9105 31.8502 33.9796C31.7797 34.0487 31.6903 34.0952 31.5933 34.1133C31.4963 34.1314 31.3961 34.1203 31.3054 34.0813C31.2147 34.0424 31.1377 33.9774 31.084 33.8945C31.0303 33.8117 31.0025 33.7147 31.004 33.616C31.0067 33.4849 31.0608 33.3601 31.1545 33.2683C31.2481 33.1766 31.374 33.1252 31.5051 33.1252Z" fill="white"/>
</g>
</g>
<defs>
<linearGradient id="paint0_linear_4888_19049" x1="21.9948" y1="-0.0321112" x2="21.9948" y2="40.393" gradientUnits="userSpaceOnUse">
<stop offset="0.04" stop-color="#82D88A"/>
<stop offset="0.15" stop-color="#75CF7E"/>
<stop offset="0.43" stop-color="#5CBD68"/>
<stop offset="0.68" stop-color="#4CB25B"/>
<stop offset="0.87" stop-color="#47AE56"/>
</linearGradient>
<clipPath id="clip0_4888_19049">
<rect width="44" height="44" fill="white" transform="translate(0 0.764648)"/>
</clipPath>
<clipPath id="clip1_4888_19049">
<rect width="29" height="29" fill="white" transform="translate(8 9.12744)"/>
</clipPath>
</defs>
</svg>
