<svg width="44" height="45" viewBox="0 0 44 45" fill="none" xmlns="http://www.w3.org/2000/svg">
<g clip-path="url(#clip0_4888_19027)">
<path d="M21.9948 44.7542C34.1421 44.7542 43.9895 34.9068 43.9895 22.7594C43.9895 10.612 34.1421 0.764648 21.9948 0.764648C9.84739 0.764648 0 10.612 0 22.7594C0 34.9068 9.84739 44.7542 21.9948 44.7542Z" fill="url(#paint0_linear_4888_19027)"/>
<path d="M35.8119 31.3666H35.2458V14.0685C35.2458 13.5124 35.0248 12.9791 34.6316 12.5859C34.2384 12.1927 33.7051 11.9718 33.149 11.9718H26.9741V10.3782C26.9741 9.60248 26.666 8.85856 26.1174 8.31003C25.5689 7.7615 24.8249 7.45337 24.0492 7.45337H19.9501C19.1743 7.45337 18.4303 7.7615 17.8818 8.31003C17.3333 8.85856 17.0251 9.60248 17.0251 10.3782V11.9718H10.8817C10.3256 11.9718 9.79228 12.1927 9.39907 12.5859C9.00585 12.9791 8.78495 13.5124 8.78495 14.0685V31.3666H8.20834C8.11521 31.3666 8.02301 31.3851 7.9371 31.4211C7.85119 31.457 7.77329 31.5097 7.70792 31.5761C7.64256 31.6424 7.59104 31.721 7.55637 31.8074C7.52169 31.8939 7.50455 31.9864 7.50594 32.0795V34.04C7.50594 34.685 7.76219 35.3037 8.21832 35.7598C8.67444 36.2159 9.29309 36.4721 9.93815 36.4721H34.145C34.79 36.4721 35.4087 36.2159 35.8648 35.7598C36.3209 35.3037 36.5772 34.685 36.5772 34.04V32.0585C36.5786 31.9645 36.5611 31.8712 36.5258 31.784C36.4905 31.6969 36.438 31.6177 36.3715 31.5512C36.305 31.4848 36.2259 31.4324 36.1388 31.397C36.0516 31.3617 35.9583 31.3442 35.8643 31.3456L35.8119 31.3666ZM26.9741 13.9427H27.1104C27.2828 13.9427 27.4481 14.0112 27.57 14.1331C27.6919 14.255 27.7604 14.4203 27.7604 14.5927C27.7604 14.7651 27.6919 14.9305 27.57 15.0524C27.4481 15.1743 27.2828 15.2427 27.1104 15.2427H26.9741V13.9427ZM26.9741 16.0394H27.1104C27.3155 16.0385 27.5183 15.9956 27.7061 15.9131C27.894 15.8307 28.0629 15.7105 28.2024 15.5602C28.342 15.4098 28.4492 15.2324 28.5174 15.0389C28.5856 14.8455 28.6134 14.64 28.5991 14.4354H32.6982V28.578H31.6498V26.2295C31.6451 25.4246 31.3679 24.6449 30.8636 24.0175C30.3565 23.3942 29.6552 22.9587 28.8717 22.7805L25.0661 21.9523C24.931 21.9199 24.8104 21.8437 24.7232 21.7356C24.636 21.6275 24.587 21.4936 24.5839 21.3547V20.6208C25.3161 20.1775 25.9217 19.553 26.3422 18.8074C26.7628 18.0618 26.984 17.2205 26.9846 16.3645L26.9741 16.0394ZM18.7654 22.8538L19.1323 22.7805C19.4699 22.7024 19.77 22.5097 19.9815 22.2353L21.3444 23.2837L20.4742 24.1538L18.7654 22.8538ZM20.4533 25.024L20.2331 28.578H13.1776V26.2295C13.1814 25.6217 13.3906 25.033 13.7713 24.5591C14.1519 24.0852 14.6816 23.7539 15.2743 23.6191L17.6122 23.1054L20.0654 24.8982C20.1649 24.9749 20.2858 25.0188 20.4113 25.024H20.4533ZM23.7242 21.3966L21.9944 22.6652L20.2751 21.3966V21.0297C20.8256 21.2321 21.4078 21.3351 21.9944 21.3337C22.5844 21.3352 23.17 21.2323 23.7242 21.0297V21.3966ZM21.3339 24.4474L21.9944 23.7869L22.6549 24.4474L22.896 28.578H21.0823L21.3339 24.4474ZM22.6549 23.2417L24.0177 22.1934C24.2293 22.4677 24.5294 22.6604 24.8669 22.7385L25.2338 22.812L23.525 24.07L22.6549 23.2417ZM23.8919 24.8982L26.3451 23.1054L28.683 23.6191C29.2757 23.7539 29.8054 24.0852 30.1861 24.5591C30.5667 25.033 30.7759 25.6217 30.7797 26.2295V28.578H23.7556L23.546 25.024C23.6721 25.0218 23.7938 24.9775 23.8919 24.8982ZM17.8743 13.8799C18.4857 13.8428 19.0927 13.7515 19.688 13.6073C19.7973 13.5799 19.8914 13.5108 19.9503 13.4147C20.0091 13.3186 20.0278 13.2034 20.0025 13.0936C19.9728 12.9857 19.9032 12.8931 19.8078 12.8347C19.7124 12.7763 19.5983 12.7564 19.4888 12.779C18.9588 12.907 18.4185 12.9876 17.8743 13.0201V10.2944C17.8743 9.73832 18.0952 9.20503 18.4884 8.81182C18.8816 8.41861 19.4149 8.19767 19.971 8.19767H24.0701C24.6262 8.19767 25.1596 8.41861 25.5528 8.81182C25.946 9.20503 26.1669 9.73832 26.1669 10.2944V12.8629C25.8141 12.7068 25.4829 12.506 25.1814 12.2653C24.7614 11.9308 24.4061 11.5221 24.1331 11.0597C24.0883 10.9773 24.0254 10.9062 23.9491 10.8517C23.8728 10.7972 23.7852 10.7609 23.6927 10.7453C23.5999 10.7297 23.5049 10.7347 23.4143 10.7601C23.3236 10.7855 23.2397 10.8305 23.1686 10.892C22.6049 11.3943 21.9732 11.8142 21.292 12.1395C21.1906 12.1911 21.1139 12.2808 21.0785 12.3888C21.0432 12.4969 21.0521 12.6147 21.1033 12.7162C21.1278 12.766 21.1619 12.8104 21.2038 12.8469C21.2456 12.8834 21.2942 12.9112 21.3469 12.9288C21.3996 12.9463 21.4552 12.9532 21.5105 12.9491C21.5659 12.945 21.6199 12.93 21.6694 12.9048C22.3387 12.5814 22.9655 12.1765 23.5355 11.6992C23.818 12.1608 24.1718 12.5749 24.5839 12.9258C25.0397 13.2916 25.5535 13.5787 26.104 13.7751V16.3645C26.0506 17.4226 25.5927 18.4198 24.8249 19.1499C24.0571 19.8799 23.0381 20.287 21.9787 20.287C20.9192 20.287 19.9002 19.8799 19.1324 19.1499C18.3646 18.4198 17.9067 17.4226 17.8533 16.3645L17.8743 13.8799ZM19.4259 20.6208V21.3547C19.4241 21.4928 19.3754 21.6261 19.2877 21.7328C19.2001 21.8395 19.0787 21.9132 18.9436 21.9418L15.1381 22.7805C14.3516 22.9588 13.6471 23.394 13.1357 24.0175C12.6343 24.6459 12.3609 25.4257 12.3599 26.2295V28.578H11.3115V14.4354H15.4106C15.3963 14.64 15.4241 14.8455 15.4923 15.0389C15.5605 15.2324 15.6677 15.4098 15.8073 15.5602C15.9468 15.7105 16.1158 15.8307 16.3036 15.9131C16.4914 15.9956 16.6942 16.0385 16.8993 16.0394H17.0356V16.3645C17.0304 17.2324 17.2521 18.0865 17.6787 18.8423C18.1053 19.5981 18.7221 20.2293 19.4678 20.6733L19.4259 20.6208ZM16.2808 14.5403C16.2808 14.368 16.3493 14.2026 16.4712 14.0807C16.5931 13.9588 16.7584 13.8904 16.9308 13.8904H17.0671V15.2846H16.9308C16.8383 15.2908 16.7456 15.2772 16.6588 15.2446C16.5721 15.212 16.4933 15.1613 16.4278 15.0958C16.3622 15.0302 16.3115 14.9514 16.2789 14.8646C16.2463 14.7779 16.2327 14.6852 16.2388 14.5927L16.2808 14.5403ZM35.7175 33.9875C35.7231 34.1985 35.6867 34.4085 35.6104 34.6054C35.5341 34.8022 35.4195 34.9819 35.2732 35.134C35.1269 35.2862 34.9518 35.4078 34.7581 35.4917C34.5645 35.5756 34.356 35.6203 34.145 35.623H9.9067C9.4877 35.6203 9.08664 35.4526 8.79036 35.1563C8.49408 34.86 8.32641 34.459 8.32367 34.04V32.2158H19.1323V32.9286C19.1323 33.2067 19.2428 33.4734 19.4394 33.67C19.636 33.8666 19.9027 33.977 20.1807 33.977H23.871C24.138 33.961 24.3887 33.8435 24.5719 33.6486C24.7551 33.4537 24.8569 33.1961 24.8564 32.9286V32.2158H28.9031C28.9645 32.2255 29.0272 32.2217 29.087 32.2048C29.1467 32.1879 29.2021 32.1583 29.2493 32.1179C29.2965 32.0776 29.3344 32.0275 29.3604 31.9711C29.3864 31.9147 29.3999 31.8533 29.3999 31.7912C29.3999 31.7291 29.3864 31.6677 29.3604 31.6113C29.3344 31.5549 29.2965 31.5048 29.2493 31.4645C29.2021 31.4241 29.1467 31.3945 29.087 31.3776C29.0272 31.3607 28.9645 31.3569 28.9031 31.3666H9.60267V14.0685C9.60267 13.7293 9.73743 13.404 9.97729 13.1641C10.2171 12.9242 10.5425 12.7895 10.8817 12.7895H17.0251V13.0936H16.8888C16.6682 13.0933 16.4503 13.1421 16.2509 13.2364C16.0514 13.3307 15.8754 13.4681 15.7356 13.6388H11.0809C10.9085 13.6388 10.7432 13.7072 10.6213 13.8291C10.4994 13.951 10.4309 14.1164 10.4309 14.2887V29.0497C10.4309 29.1062 10.442 29.162 10.4636 29.2142C10.4852 29.2663 10.5169 29.3137 10.5568 29.3537C10.5967 29.3936 10.6441 29.4252 10.6962 29.4468C10.7484 29.4684 10.8043 29.4796 10.8607 29.4796H33.0966C33.153 29.4796 33.2089 29.4684 33.2611 29.4468C33.3132 29.4252 33.3606 29.3936 33.4005 29.3537C33.4404 29.3137 33.4721 29.2663 33.4937 29.2142C33.5153 29.162 33.5264 29.1062 33.5264 29.0497V14.2887C33.5264 14.1164 33.4579 13.951 33.336 13.8291C33.2142 13.7072 33.0488 13.6388 32.8764 13.6388H28.2636C28.1238 13.4681 27.9478 13.3307 27.7484 13.2364C27.5489 13.1421 27.331 13.0933 27.1104 13.0936H26.9741V12.7895H33.0966C33.4358 12.7895 33.7611 12.9242 34.001 13.1641C34.2409 13.404 34.3756 13.7293 34.3756 14.0685V31.3666H30.916C30.8546 31.3569 30.7919 31.3607 30.7322 31.3776C30.6724 31.3945 30.617 31.4241 30.5698 31.4645C30.5226 31.5048 30.4847 31.5549 30.4587 31.6113C30.4327 31.6677 30.4192 31.7291 30.4192 31.7912C30.4192 31.8533 30.4327 31.9147 30.4587 31.9711C30.4847 32.0275 30.5226 32.0776 30.5698 32.1179C30.617 32.1583 30.6724 32.1879 30.7322 32.2048C30.7919 32.2217 30.8546 32.2255 30.916 32.2158H35.6546L35.7175 33.9875ZM19.992 32.8763V32.1633H24.0177V32.8763C24.0177 32.9124 24.0034 32.9471 23.9778 32.9727C23.9523 32.9982 23.9176 33.0126 23.8814 33.0126H20.1283C20.0982 33.0154 20.0679 33.0089 20.0416 32.9939C20.0153 32.9789 19.9944 32.956 19.9815 32.9286L19.992 32.8763ZM20.925 19.0587C21.2483 19.2304 21.6074 19.3238 21.9734 19.3313C22.3601 19.3293 22.7409 19.2359 23.0847 19.0587C23.1785 19.0013 23.2467 18.91 23.2753 18.8037C23.3038 18.6974 23.2905 18.5842 23.2381 18.4875C23.1857 18.3907 23.0982 18.3178 22.9936 18.2836C22.889 18.2495 22.7752 18.2568 22.6758 18.304C22.4682 18.422 22.2332 18.4835 21.9944 18.4822C21.7592 18.4808 21.5283 18.4194 21.3234 18.304C21.2239 18.2538 21.1091 18.2431 21.0021 18.2743C20.8951 18.3054 20.8039 18.376 20.7468 18.4717C20.719 18.5212 20.7013 18.5757 20.6947 18.6321C20.6881 18.6885 20.6927 18.7457 20.7083 18.8002C20.7239 18.8548 20.7502 18.9057 20.7856 18.9501C20.821 18.9945 20.8648 19.0314 20.9146 19.0587H20.925ZM19.8138 16.0919C19.8702 16.0919 19.9261 16.0807 19.9783 16.0591C20.0304 16.0375 20.0778 16.0059 20.1177 15.966C20.1576 15.9261 20.1893 15.8786 20.2109 15.8265C20.2325 15.7743 20.2436 15.7185 20.2436 15.662V14.7815C20.2436 14.6675 20.1983 14.5581 20.1177 14.4775C20.0371 14.3969 19.9278 14.3516 19.8138 14.3516C19.6998 14.3516 19.5904 14.3969 19.5098 14.4775C19.4292 14.5581 19.3839 14.6675 19.3839 14.7815V15.662C19.3766 15.7219 19.3819 15.7826 19.3995 15.8402C19.4171 15.8978 19.4467 15.9511 19.4862 15.9966C19.5258 16.042 19.5744 16.0787 19.629 16.1042C19.6837 16.1296 19.743 16.1432 19.8033 16.1443L19.8138 16.0919ZM24.2064 16.0919C24.2624 16.0919 24.3178 16.0807 24.3694 16.059C24.4209 16.0373 24.4676 16.0054 24.5067 15.9653C24.5458 15.9253 24.5765 15.8778 24.5969 15.8257C24.6174 15.7736 24.6272 15.718 24.6258 15.662V14.7815C24.6098 14.6803 24.5583 14.5882 24.4805 14.5217C24.4026 14.4551 24.3036 14.4185 24.2012 14.4185C24.0988 14.4185 23.9998 14.4551 23.9219 14.5217C23.8441 14.5882 23.7926 14.6803 23.7766 14.7815V15.662C23.7692 15.7219 23.7745 15.7826 23.7922 15.8402C23.8098 15.8978 23.8393 15.9511 23.8789 15.9966C23.9184 16.042 23.9671 16.0787 24.0217 16.1042C24.0763 16.1296 24.1357 16.1432 24.196 16.1443L24.2064 16.0919Z" fill="white"/>
</g>
<defs>
<linearGradient id="paint0_linear_4888_19027" x1="21.9948" y1="-0.0321112" x2="21.9948" y2="40.393" gradientUnits="userSpaceOnUse">
<stop offset="0.04" stop-color="#82D88A"/>
<stop offset="0.15" stop-color="#75CF7E"/>
<stop offset="0.43" stop-color="#5CBD68"/>
<stop offset="0.68" stop-color="#4CB25B"/>
<stop offset="0.87" stop-color="#47AE56"/>
</linearGradient>
<clipPath id="clip0_4888_19027">
<rect width="44" height="44" fill="white" transform="translate(0 0.764648)"/>
</clipPath>
</defs>
</svg>
